# xmcd
#
# Track frame offsets: 
#        180
#        10803
#        23067
#        33274
#        44867
#        57979
#        71376
#        84062
#        94586
#        108356
#
# Disc length: 1614 seconds
#
# Revision: 0
# Processed by: cddbd v1.5.2PL0 Copyright (c) Steve Scherf et al.
# Submitted via: ExactAudioCopy v0.99pb5
#
DISCID=71064c0a
DTITLE=Freddie Hart - I Will Never Die
DYEAR=1900
DGENRE=Gospel
TTITLE0=I Will Never Die
TTITLE1=The Scars On Jesus Christ
TTITLE2=Heaven's Only Knee High
TTITLE3=Let's Witness For The Lord
TTITLE4=Help Me Be Worthy
TTITLE5=What More Can I Ask
TTITLE6=Without Jesus
TTITLE7=Where He Leads Me
TTITLE8=Don't Ever Let Go
TTITLE9=Dedicating All Of Me
EXTD=
EXTT0=
EXTT1=
EXTT2=
EXTT3=
EXTT4=
EXTT5=
EXTT6=
EXTT7=
EXTT8=
EXTT9=
PLAYORDER=
